<?xml version="1.0" encoding="UTF-8"?><svg id="Ebene_2" xmlns="http://www.w3.org/2000/svg" xmlns:xlink="http://www.w3.org/1999/xlink" viewBox="0 0 16 16"><defs><style>.cls-1{fill:url(#Unbenannter_Verlauf_58);}.cls-1,.cls-2,.cls-3,.cls-4{stroke-width:0px;}.cls-2{fill:url(#Unbenannter_Verlauf_244);}.cls-3{fill:url(#Unbenannter_Verlauf_58-2);}.cls-4{fill:#ffe3e8;}</style><linearGradient id="Unbenannter_Verlauf_244" x1="15.5" y1="15.5" x2=".5" y2=".5" gradientUnits="userSpaceOnUse"><stop offset="0" stop-color="#330004"/><stop offset=".13" stop-color="#3b0207"/><stop offset=".33" stop-color="#540b11"/><stop offset=".58" stop-color="#7c1821"/><stop offset=".88" stop-color="#b22a37"/><stop offset="1" stop-color="#cc3342"/></linearGradient><linearGradient id="Unbenannter_Verlauf_58" x1=".5" y1=".5" x2="15.5" y2="15.5" gradientUnits="userSpaceOnUse"><stop offset="0" stop-color="#330004"/><stop offset="1" stop-color="#cc0018"/></linearGradient><linearGradient id="Unbenannter_Verlauf_58-2" x1="3.22" y1="3.53" x2="12.89" y2="13.2" xlink:href="#Unbenannter_Verlauf_58"/></defs><g id="Ebene_1-2"><rect class="cls-2" x="0" y="0" width="16" height="16" rx="1.7" ry="1.7"/><path class="cls-1" d="M14.3.5c.66,0,1.2.54,1.2,1.2v12.6c0,.66-.54,1.2-1.2,1.2H1.7c-.66,0-1.2-.54-1.2-1.2V1.7c0-.66.54-1.2,1.2-1.2h12.6M14.3,0H1.7C.76,0,0,.76,0,1.7v12.6c0,.94.76,1.7,1.7,1.7h12.6c.94,0,1.7-.76,1.7-1.7V1.7c0-.94-.76-1.7-1.7-1.7h0Z"/><path class="cls-3" d="M7.47,15.5c-.51,0-1.27-.07-1.9-.7-.99-1-1.34-2.58-1.44-3.21-.1-.58-.22-1.33-.04-1.82.19-.49.83-.49,1.08-.49.11,0,.54.01.54.01,0,0,.25-.02.29-.02.21,0,.36.1.45.31.09.21.09.46.08.68,0,.08,0,.15,0,.21.04.66.16,1.27.36,1.82.33.91.96,1.89,1.56,1.89.08,0,.16-.02.24-.05.92-.37,1.8-1.26,2.32-1.98.25-.35.34-.7.27-1.03-.09-.43-.43-.84-.98-1.16-1.02-.61-2.2-.93-3.34-1.25-1.1-.3-2.23-.62-3.26-1.18-.47-.26-.98-.58-1.18-1.13-.23-.62.03-1.29.29-1.75.46-.82,1.15-1.73,2.11-2.77l.19-.22c.31-.36.67-.77,1.12-.96.41-.18.81-.19,1.2-.19.13,0,.26,0,.39-.02.1,0,.19,0,.28,0,.11,0,.22-.01.33-.01.26,0,.59.02.86.21.44.3.56.9.62,1.4.09.74.11,1.31.06,1.79-.04.38-.12.56-.51.72-.26.1-.57.18-.93.25-.18.04-.31.07-.43.07s-.22-.03-.31-.08c-.23-.16-.25-.53-.26-.8v-.11c-.02-.18-.03-.36-.03-.55-.01-.43-.02-.84-.17-1.2-.03-.07-.05-.09-.05-.09,0,.04-.17.28-.26.4-.06.09-.12.17-.17.23-.4.48-.78.97-1.16,1.46l-.14.18c-.26.33-.55.7-.63,1.05-.1.45.51.87.71.99.32.2.71.33,1.09.46l2.14.74c.27.09.53.18.8.27.83.27,1.68.55,2.48.97.71.37,1.46,1.73,1.42,2.56-.04.75-.97,2.17-1.5,2.62-.68.58-1.99,1.25-3.25,1.37l-.3.03c-.35.04-.7.07-1.04.07h0Z"/><path class="cls-4" d="M8.44.75c.26,0,.52.03.71.17.36.25.47.82.52,1.22.07.55.12,1.18.06,1.73-.03.31-.07.4-.36.51-.28.11-.59.18-.88.24-.1.02-.25.06-.38.06-.06,0-.12-.01-.16-.04-.16-.11-.14-.55-.16-.73-.05-.6.02-1.25-.21-1.82-.07-.17-.15-.23-.23-.23-.23,0-.49.48-.67.7-.4.48-.79.98-1.17,1.47-.29.38-.71.85-.82,1.33-.12.53.41,1,.82,1.26.42.27.93.41,1.4.57.63.22,1.25.43,1.88.65,1.09.38,2.22.68,3.25,1.22.62.33,1.32,1.61,1.28,2.33-.04.66-.91,2.02-1.42,2.45-.64.55-1.92,1.2-3.11,1.31-.44.04-.89.1-1.32.1-.63,0-1.22-.13-1.72-.63-.77-.78-1.2-2.03-1.38-3.08-.08-.47-.22-1.23-.05-1.69.11-.28.48-.33.84-.33.2,0,.39.01.54.01.02,0,.04,0,.06,0,.09,0,.17-.01.23-.01.1,0,.17.03.23.16.1.22.05.57.07.81.04.64.15,1.28.37,1.89.25.68.92,2.06,1.79,2.06.11,0,.22-.02.33-.07.94-.37,1.85-1.26,2.43-2.06.74-1.01.21-1.97-.78-2.55-2.04-1.21-4.54-1.3-6.6-2.43-.42-.23-.9-.53-1.07-1-.18-.51.02-1.09.27-1.54.54-.96,1.33-1.91,2.08-2.73.35-.39.74-.91,1.23-1.12.5-.21.99-.15,1.51-.19.18,0,.39-.02.6-.02M8.44.25c-.12,0-.23,0-.34.01-.09,0-.17,0-.25,0-.16.01-.29.01-.41.02-.39,0-.83.02-1.29.21-.5.22-.88.65-1.21,1.03-.06.07-.13.14-.19.21-.97,1.06-1.67,1.98-2.14,2.82-.4.72-.51,1.39-.31,1.96.25.68.93,1.06,1.3,1.26,1.05.58,2.2.9,3.31,1.21,1.17.32,2.29.63,3.28,1.22.48.28.79.64.86.99.05.27-.02.55-.23.84-.5.69-1.34,1.54-2.21,1.89-.05.02-.1.03-.14.03-.44,0-1.02-.88-1.32-1.73-.19-.52-.3-1.11-.34-1.75,0-.06,0-.13,0-.2,0-.24,0-.53-.11-.79-.13-.3-.37-.46-.68-.46-.05,0-.1,0-.15,0h-.1s-.02,0-.03,0c-.09,0-.15,0-.22,0-.1,0-.21,0-.33,0-.26,0-1.06,0-1.31.65-.21.55-.08,1.31.01,1.86v.09c.12.66.49,2.3,1.53,3.35.69.7,1.51.78,2.07.78.36,0,.72-.04,1.06-.07l.3-.03c1.32-.13,2.68-.83,3.39-1.43.58-.49,1.55-1.98,1.59-2.8.05-.92-.76-2.38-1.55-2.8-.82-.43-1.68-.71-2.52-.98-.27-.09-.53-.17-.8-.26l-1.88-.65-.26-.09c-.38-.13-.74-.25-1.03-.43-.39-.24-.63-.54-.59-.72.07-.3.34-.65.58-.95l.14-.19c.36-.47.74-.97,1.15-1.45.05-.06.1-.13.16-.21.04.23.04.47.05.71,0,.19,0,.38.03.57v.1c.02.31.04.77.37,1,.12.09.27.13.45.13.15,0,.3-.03.41-.06l.07-.02c.38-.07.7-.16.97-.26.5-.2.63-.48.67-.93.05-.5.03-1.09-.06-1.85-.07-.54-.21-1.22-.73-1.57-.33-.23-.73-.25-1-.25h0Z"/></g></svg>