<?xml version="1.0" encoding="utf-8"?>
<!-- Generator: Adobe Illustrator 28.3.0, SVG Export Plug-In . SVG Version: 6.00 Build 0)  -->
<svg version="1.1" id="internalLink" xmlns="http://www.w3.org/2000/svg" xmlns:xlink="http://www.w3.org/1999/xlink" x="0px"
	 y="0px" viewBox="0 0 26 26" style="enable-background:new 0 0 26 26;" xml:space="preserve">
<path id="outline" d="M0,4v18c0,2.2,1.8,4,4,4h18c2.2,0,4-1.8,4-4v-9c0-0.6-0.4-1-1-1s-1,0.4-1,1v9c0,1.1-0.9,2-2,2H4
	c-1.1,0-2-0.9-2-2V4c0-1.1,0.9-2,2-2h9c0.6,0,1-0.4,1-1s-0.4-1-1-1H4C1.8,0,0,1.8,0,4z"/>
<path id="arrow" d="M25.7,0.3c-0.4-0.4-1-0.4-1.4,0c0,0,0,0,0,0L13.5,11.1V6.5c0-0.6-0.4-1-1-1s-1,0.4-1,1v7c0,0.6,0.4,1,1,1h7
	c0.6,0,1-0.4,1-1s-0.4-1-1-1h-4.6L25.7,1.7C26.1,1.3,26.1,0.7,25.7,0.3C25.7,0.3,25.7,0.3,25.7,0.3z"/>
</svg>
